<svg width="21" height="21" viewBox="0 0 21 21" fill="none" xmlns="http://www.w3.org/2000/svg">
<path d="M6 18.525V9.5H7.6C7.71667 9.5 7.83333 9.51267 7.95 9.538C8.06667 9.56333 8.18333 9.59233 8.3 9.625L15.225 12.2C15.4583 12.2833 15.646 12.4333 15.788 12.65C15.93 12.8667 16.0007 13.0917 16 13.325C16 13.675 15.879 13.9583 15.637 14.175C15.395 14.3917 15.116 14.5 14.8 14.5H12.175C12.0917 14.5 12.0293 14.496 11.988 14.488C11.9467 14.48 11.8923 14.459 11.825 14.425L10.225 13.8L9.9 14.775L11.825 15.45C11.8583 15.4667 11.9083 15.4793 11.975 15.488C12.0417 15.4967 12.1 15.5007 12.15 15.5H19C19.5333 15.5 20 15.6917 20.4 16.075C20.8 16.4583 21 16.9333 21 17.5L13.025 20.5L6 18.525ZM0 20.5V9.5H4V20.5H0ZM13.5 6.5H14.5V5.5H13.5V6.5ZM11.5 6.5H12.5V5.5H11.5V6.5ZM13.5 8.5H14.5V7.5H13.5V8.5ZM11.5 8.5H12.5V7.5H11.5V8.5ZM17.525 12.5C17.2917 11.95 16.9583 11.4667 16.525 11.05C16.0917 10.6333 15.5583 10.3083 14.925 10.075L8 7.5H6V5L13 0L20 5V12.5H17.525Z" fill="white"/>
</svg>
