<svg width="21" height="16" viewBox="0 0 21 16" fill="none" xmlns="http://www.w3.org/2000/svg">
<path d="M2.5 2.75C2.5 2.15326 2.73705 1.58097 3.15901 1.15901C3.58097 0.737053 4.15326 0.5 4.75 0.5H16.25C16.5455 0.5 16.8381 0.558198 17.111 0.671271C17.384 0.784344 17.6321 0.950078 17.841 1.15901C18.0499 1.36794 18.2157 1.61598 18.3287 1.88896C18.4418 2.16194 18.5 2.45453 18.5 2.75V10.25C18.5 10.5455 18.4418 10.8381 18.3287 11.111C18.2157 11.384 18.0499 11.6321 17.841 11.841C17.6321 12.0499 17.384 12.2157 17.111 12.3287C16.8381 12.4418 16.5455 12.5 16.25 12.5H4.75C4.15326 12.5 3.58097 12.2629 3.15901 11.841C2.73705 11.419 2.5 10.8467 2.5 10.25V2.75ZM1.25 14C1.05109 14 0.860322 14.079 0.71967 14.2197C0.579018 14.3603 0.5 14.5511 0.5 14.75C0.5 14.9489 0.579018 15.1397 0.71967 15.2803C0.860322 15.421 1.05109 15.5 1.25 15.5H19.75C19.9489 15.5 20.1397 15.421 20.2803 15.2803C20.421 15.1397 20.5 14.9489 20.5 14.75C20.5 14.5511 20.421 14.3603 20.2803 14.2197C20.1397 14.079 19.9489 14 19.75 14H1.25Z" fill="white"/>
</svg>
