<svg width="25" height="25" viewBox="0 0 25 25" fill="none" xmlns="http://www.w3.org/2000/svg">
<path d="M23.4906 10.0734L23.2026 9.78535C23.3889 9.39821 23.4528 8.96347 23.3857 8.5391C23.3187 8.11472 23.1239 7.72086 22.8273 7.41002C22.6249 7.20863 22.3819 7.05273 22.1145 6.95271C21.8471 6.85269 21.5614 6.81086 21.2766 6.83002C21.0089 6.84568 20.746 6.90819 20.4999 7.01469V2.16669H1.83325V23.5H20.4999V12.7134L22.5599 10.6534L22.7359 10.8287C22.7589 10.8517 22.7772 10.8789 22.7896 10.909C22.8021 10.939 22.8085 10.9712 22.8085 11.0037C22.8085 11.0362 22.8021 11.0684 22.7896 11.0984C22.7772 11.1284 22.7589 11.1557 22.7359 11.1787L21.1673 12.748C21.0672 12.848 21.0109 12.9837 21.0109 13.1251C21.0108 13.2666 21.0669 13.4023 21.1669 13.5024C21.2669 13.6024 21.4026 13.6587 21.544 13.6587C21.6855 13.6588 21.8212 13.6027 21.9213 13.5027L23.4906 11.9334C23.7369 11.6865 23.8752 11.3521 23.8752 11.0034C23.8752 10.6547 23.7369 10.3202 23.4906 10.0734ZM5.83325 6.30002H16.5013V7.36669H5.83325V6.30002ZM5.83325 8.96669H16.5013V10.0334H5.83325V8.96669ZM5.83325 11.6334H12.8333V12.7H5.83325V11.6334ZM15.6946 20.764H10.4919C9.89059 20.764 9.32792 20.7074 9.02925 20.2147C8.72325 19.7114 9.02725 19.1267 9.24925 18.6987C9.28859 18.6234 9.20125 18.53 9.10125 18.6334C8.80792 18.9347 8.34125 19.4774 7.96592 19.9134C7.56925 20.3747 7.41192 20.5554 7.32792 20.6314C7.23905 20.7346 7.11834 20.8053 6.98484 20.8323C6.85133 20.8594 6.71262 20.8412 6.59059 20.7807C6.48102 20.7174 6.39519 20.62 6.34619 20.5034C6.29719 20.3867 6.28773 20.2572 6.31925 20.1347C6.34725 19.968 6.82325 18.1134 7.25459 16.446C6.68125 17.464 4.86125 20.5127 4.77592 20.656C4.71244 20.7624 4.60932 20.8392 4.48923 20.8695C4.36915 20.8998 4.24194 20.8812 4.13559 20.8177C4.02923 20.7542 3.95245 20.6511 3.92213 20.531C3.89182 20.4109 3.91044 20.2837 3.97392 20.1774C3.99725 20.1394 6.27725 16.3187 6.56459 15.764C6.65826 15.5423 6.83259 15.3644 7.05237 15.2663C7.27214 15.1681 7.52097 15.1571 7.74859 15.2354C7.95404 15.3189 8.1202 15.4771 8.2136 15.6783C8.307 15.8794 8.32069 16.1085 8.25192 16.3194C8.01192 17.2447 7.76725 18.194 7.57859 18.9327C7.88325 18.5807 8.20192 18.2194 8.43192 17.9827C8.60893 17.7699 8.8508 17.621 9.12051 17.5587C9.39021 17.4965 9.67289 17.5243 9.92525 17.638C10.0821 17.7179 10.2077 17.8479 10.2821 18.0073C10.3565 18.1668 10.3755 18.3465 10.3359 18.518C10.2722 18.7304 10.1855 18.9352 10.0773 19.1287C9.89925 19.4987 9.98392 19.83 10.4919 19.83H15.6939C15.8177 19.83 15.9364 19.8792 16.0239 19.9667C16.1114 20.0542 16.1606 20.1729 16.1606 20.2967C16.1606 20.4205 16.1114 20.5392 16.0239 20.6267C15.9364 20.7142 15.8177 20.7634 15.6939 20.7634L15.6946 20.764ZM14.3073 17.3974L12.5713 17.8554C12.546 17.8625 12.5193 17.8627 12.4939 17.8559C12.4686 17.8491 12.4455 17.8355 12.4273 17.8167C12.4081 17.7986 12.3943 17.7756 12.3874 17.7502C12.3804 17.7248 12.3806 17.698 12.3879 17.6727L12.8306 15.94L17.2239 11.5467L18.6906 13.0134L14.3073 17.3974ZM21.9513 9.75269L19.4446 12.2594L17.9779 10.7927L20.4846 8.28602C20.7088 8.05553 21.0104 7.91634 21.3313 7.89535L21.3913 7.89335C21.5171 7.8911 21.6422 7.91394 21.7592 7.96052C21.8762 8.0071 21.9827 8.07651 22.0726 8.16469C22.2653 8.39214 22.3606 8.68636 22.3379 8.98359C22.3152 9.28083 22.1763 9.55715 21.9513 9.75269Z" fill="white"/>
</svg>
