<svg width="20" height="23" viewBox="0 0 20 23" fill="none" xmlns="http://www.w3.org/2000/svg">
<path d="M6 11.5C8.7615 11.5 11 9.2615 11 6.5C11 3.7385 8.7615 1.5 6 1.5C3.2385 1.5 1 3.7385 1 6.5C1 9.2615 3.2385 11.5 6 11.5Z" stroke="white" stroke-width="2" stroke-linejoin="round"/>
<path d="M10.9999 7.10101C11.0069 7.10801 13.3614 10.069 18.0629 15.983C18.1425 16.0789 18.1835 16.201 18.1778 16.3255C18.172 16.45 18.12 16.5679 18.0319 16.656L15.9899 18.698C15.9018 18.7861 15.7839 18.8381 15.6594 18.8439C15.5349 18.8496 15.4128 18.8086 15.3169 18.729L6.91089 11.5M11.2349 11.735L12.6494 13.1495" stroke="white" stroke-width="2" stroke-linecap="round" stroke-linejoin="round"/>
<path d="M6.5 21.543C7.4585 20.294 8.6235 19.6695 9.995 19.6695C12.053 19.6695 14.4815 22.2545 16.553 21.899C18.625 21.543 19.218 19.5 17.943 18.369" stroke="white" stroke-width="2" stroke-linecap="round" stroke-linejoin="round"/>
</svg>
