<svg width="20" height="19" viewBox="0 0 20 19" fill="none" xmlns="http://www.w3.org/2000/svg">
<path d="M18.1301 1.65499C17.5337 1.14454 16.8255 0.78169 16.0629 0.5958C15.3002 0.40991 14.5045 0.406206 13.7401 0.584989C12.2034 0.92146 10.8604 1.84796 10.0001 3.16499C9.14456 1.85223 7.80942 0.926248 6.2801 0.584989C5.51917 0.402213 4.72635 0.397353 3.96324 0.570788C3.20013 0.744222 2.48728 1.09128 1.8801 1.58499C0.3001 2.96499 -0.5699 6.02499 0.4201 9.12499C0.5321 9.46699 0.6661 9.80099 0.8201 10.125C0.8601 10.2 0.8971 10.277 0.9301 10.355C3.5001 15.595 9.4401 18.355 9.7001 18.485C9.79635 18.5328 9.90266 18.5568 10.0101 18.555C10.1174 18.5557 10.2235 18.5317 10.3201 18.485C10.5701 18.375 16.5701 15.635 19.1201 10.335L19.2001 10.165C19.3581 9.82499 19.4951 9.47399 19.6101 9.11499C20.5501 6.11499 19.6901 3.05499 18.1301 1.65499ZM17.8201 9.58499C17.6801 9.89899 17.5201 10.203 17.3401 10.495H14.0301C13.8654 10.4941 13.7034 10.4526 13.5586 10.3741C13.4139 10.2956 13.2907 10.1826 13.2001 10.045L12.1501 8.48499L9.9201 12.945C9.84966 13.0862 9.7468 13.2088 9.61992 13.3026C9.49305 13.3965 9.34576 13.459 9.1901 13.485H9.0301C8.89779 13.4844 8.76691 13.4576 8.64503 13.4061C8.52316 13.3546 8.41271 13.2795 8.3201 13.185L5.6101 10.485H2.7001C2.51595 10.1607 2.34905 9.82689 2.2001 9.48499C2.04547 9.16296 1.91835 8.82844 1.8201 8.48499H6.0301C6.16171 8.48417 6.29219 8.50937 6.41404 8.55914C6.53588 8.60891 6.64669 8.68226 6.7401 8.77499L8.7401 10.775L11.1201 6.01499C11.1992 5.85739 11.3186 5.72352 11.4661 5.62692C11.6136 5.53033 11.784 5.47447 11.9601 5.46499C12.1339 5.45449 12.3075 5.48956 12.4636 5.56674C12.6197 5.64391 12.7529 5.76051 12.8501 5.90499L14.5501 8.46499H18.2501C18.1412 8.85065 17.9973 9.22555 17.8201 9.58499Z" fill="white"/>
</svg>
