<svg width="24" height="25" viewBox="0 0 24 25" fill="none" xmlns="http://www.w3.org/2000/svg">
<path d="M23.5 7.33334C23.171 7.33334 22.841 7.40334 22.563 7.57834C21 8.56634 21 9.91334 21 10.8333V11.3333H16.5M8.5 14.3333H23.5M16 14.3333V24.8333M11.5 24.3333C10.5 24.3333 9.75 22.8333 9.75 22.8333C9 21.3333 9 20.3333 9 18.8333V17.3333H1V17.0833L2.922 9.58834C3.08738 8.94324 3.46272 8.3715 3.98886 7.96323C4.515 7.55495 5.16203 7.33335 5.828 7.33334H7L8.447 10.2273C8.61313 10.5598 8.86862 10.8394 9.1848 11.0348C9.50098 11.2301 9.86534 11.3335 10.237 11.3333H14.5M6.85 5.33334C6.85 5.33334 5.25 4.33334 5.25 3.08334C5.25 2.85379 5.29521 2.62649 5.38306 2.41441C5.4709 2.20234 5.59966 2.00964 5.76198 1.84732C5.92429 1.685 6.11699 1.55625 6.32907 1.4684C6.54115 1.38056 6.76845 1.33534 6.998 1.33534C7.22755 1.33534 7.45485 1.38056 7.66693 1.4684C7.87901 1.55625 8.07171 1.685 8.23402 1.84732C8.39634 2.00964 8.5251 2.20234 8.61294 2.41441C8.70079 2.62649 8.746 2.85379 8.746 3.08334C8.746 4.33334 7.15 5.33334 7.15 5.33334H6.85Z" stroke="white"/>
</svg>
