<svg width="24" height="25" viewBox="0 0 24 25" fill="none" xmlns="http://www.w3.org/2000/svg">
<path d="M10 12.5C12.2091 12.5 14 10.7091 14 8.5C14 6.29086 12.2091 4.5 10 4.5C7.79086 4.5 6 6.29086 6 8.5C6 10.7091 7.79086 12.5 10 12.5Z" fill="white"/>
<path d="M10.67 13.52C10.45 13.51 10.23 13.5 10 13.5C7.58 13.5 5.32 14.17 3.39 15.32C2.51 15.84 2 16.82 2 17.85V20.5H11.26C10.5537 19.4924 10.127 18.3157 10.0234 17.0896C9.91971 15.8635 10.1428 14.6318 10.67 13.52ZM20.75 16.5C20.75 16.28 20.72 16.08 20.69 15.87L21.83 14.86L20.83 13.13L19.38 13.62C19.06 13.35 18.7 13.14 18.3 12.99L18 11.5H16L15.7 12.99C15.3 13.14 14.94 13.35 14.62 13.62L13.17 13.13L12.17 14.86L13.31 15.87C13.28 16.08 13.25 16.28 13.25 16.5C13.25 16.72 13.28 16.92 13.31 17.13L12.17 18.14L13.17 19.87L14.62 19.38C14.94 19.65 15.3 19.86 15.7 20.01L16 21.5H18L18.3 20.01C18.7 19.86 19.06 19.65 19.38 19.38L20.83 19.87L21.83 18.14L20.69 17.13C20.72 16.92 20.75 16.72 20.75 16.5ZM17 18.5C15.9 18.5 15 17.6 15 16.5C15 15.4 15.9 14.5 17 14.5C18.1 14.5 19 15.4 19 16.5C19 17.6 18.1 18.5 17 18.5Z" fill="white"/>
</svg>
