<svg width="17" height="17" viewBox="0 0 17 17" fill="none" xmlns="http://www.w3.org/2000/svg">
<path d="M0.5 16.8333V13.3333H1.5V15.8333H4V16.8333H0.5ZM13 16.8333V15.8333H15.5V13.3333H16.5V16.8333H13ZM8.5 14.8333C6.836 14.8333 5.42 14.2493 4.252 13.0813C3.084 11.9133 2.5 10.4973 2.5 8.83334C2.5 7.16934 3.084 5.75334 4.252 4.58534C5.42 3.41734 6.836 2.83334 8.5 2.83334C10.164 2.83334 11.58 3.41734 12.748 4.58534C13.916 5.75334 14.5 7.16934 14.5 8.83334C14.5 10.4973 13.916 11.9133 12.748 13.0813C11.58 14.2493 10.164 14.8333 8.5 14.8333ZM0.5 4.33334V0.833344H4V1.83334H1.5V4.33334H0.5ZM15.5 4.33334V1.83334H13V0.833344H16.5V4.33334H15.5Z" fill="white"/>
</svg>
