<svg width="20" height="19" viewBox="0 0 20 19" fill="none" xmlns="http://www.w3.org/2000/svg">
<path d="M11.7831 12.672L13.9041 10.551L19.9001 16.547L17.7791 18.668L11.7831 12.672ZM15.5001 7.49997C17.4301 7.49997 19.0001 5.92997 19.0001 3.99997C19.0001 3.41997 18.8401 2.87997 18.5901 2.39997L15.8901 5.09997L14.4001 3.60997L17.1001 0.90997C16.6201 0.65997 16.0801 0.49997 15.5001 0.49997C13.5701 0.49997 12.0001 2.06997 12.0001 3.99997C12.0001 4.40997 12.0801 4.79997 12.2101 5.15997L10.3601 7.00997L8.5801 5.22997L9.2901 4.51997L7.8801 3.10997L10.0001 0.98997C9.4376 0.428168 8.6751 0.11261 7.8801 0.11261C7.0851 0.11261 6.3226 0.428168 5.7601 0.98997L2.2201 4.52997L3.6301 5.93997H0.810098L0.100098 6.64997L3.6401 10.19L4.3501 9.47997V6.64997L5.7601 8.05997L6.4701 7.34997L8.2501 9.12997L0.840098 16.54L2.9601 18.66L14.3401 7.28997C14.7001 7.41997 15.0901 7.49997 15.5001 7.49997Z" fill="white"/>
</svg>
