<svg width="21" height="21" viewBox="0 0 21 21" fill="none" xmlns="http://www.w3.org/2000/svg">
<path d="M10.5 0.833344C9.18678 0.833344 7.88642 1.092 6.67317 1.59455C5.45991 2.0971 4.35752 2.83369 3.42893 3.76228C1.55357 5.63764 0.5 8.18118 0.5 10.8333C0.5 13.4855 1.55357 16.029 3.42893 17.9044C4.35752 18.833 5.45991 19.5696 6.67317 20.0721C7.88642 20.5747 9.18678 20.8333 10.5 20.8333C13.1522 20.8333 15.6957 19.7798 17.5711 17.9044C19.4464 16.029 20.5 13.4855 20.5 10.8333C20.5 9.52012 20.2413 8.21976 19.7388 7.00651C19.2362 5.79325 18.4997 4.69086 17.5711 3.76228C16.6425 2.83369 15.5401 2.0971 14.3268 1.59455C13.1136 1.092 11.8132 0.833344 10.5 0.833344ZM14.7 15.0333L9.5 11.8333V5.83334H11V11.0333L15.5 13.7333L14.7 15.0333Z" fill="white"/>
</svg>
