<svg width="25" height="25" viewBox="0 0 25 25" fill="none" xmlns="http://www.w3.org/2000/svg">
<path d="M13.25 18.9713V15.8333H11.75V18.9713C11.2496 19.1483 10.8278 19.4964 10.5593 19.9542C10.2907 20.412 10.1927 20.95 10.2824 21.4731C10.3722 21.9963 10.644 22.4708 11.0498 22.8129C11.4556 23.155 11.9692 23.3427 12.5 23.3427C13.0308 23.3427 13.5444 23.155 13.9503 22.8129C14.3561 22.4708 14.6278 21.9963 14.7176 21.4731C14.8074 20.95 14.7093 20.412 14.4407 19.9542C14.1722 19.4964 13.7504 19.1483 13.25 18.9713Z" fill="white"/>
<path d="M20 9.83334C19.3367 9.83532 18.6928 10.0573 18.1692 10.4644C17.6456 10.8716 17.2718 11.441 17.1065 12.0833H7.89351C7.71096 11.3763 7.27683 10.7602 6.6725 10.3504C6.06817 9.94058 5.33512 9.76525 4.61076 9.85725C3.8864 9.94926 3.22046 10.3023 2.73777 10.8502C2.25507 11.398 1.98877 12.1032 1.98877 12.8333C1.98877 13.5635 2.25507 14.2686 2.73777 14.8165C3.22046 15.3644 3.8864 15.7174 4.61076 15.8094C5.33512 15.9014 6.06817 15.7261 6.6725 15.3163C7.27683 14.9065 7.71096 14.2903 7.89351 13.5833H17.1065C17.2477 14.1253 17.5381 14.6167 17.9446 15.0019C18.3511 15.3871 18.8575 15.6506 19.4062 15.7625C19.9549 15.8743 20.524 15.8301 21.0489 15.6348C21.5738 15.4395 22.0333 15.1009 22.3755 14.6575C22.7176 14.2142 22.9285 13.6838 22.9843 13.1265C23.0401 12.5693 22.9386 12.0076 22.6912 11.5052C22.4438 11.0027 22.0605 10.5798 21.5848 10.2842C21.1091 9.98872 20.56 9.83251 20 9.83334ZM5.00001 14.3333C4.70333 14.3333 4.41333 14.2454 4.16665 14.0805C3.91998 13.9157 3.72772 13.6815 3.61419 13.4074C3.50066 13.1333 3.47095 12.8317 3.52883 12.5407C3.58671 12.2497 3.72957 11.9825 3.93935 11.7727C4.14913 11.5629 4.4164 11.42 4.70737 11.3622C4.99834 11.3043 5.29994 11.334 5.57403 11.4475C5.84812 11.5611 6.08239 11.7533 6.24721 12C6.41203 12.2467 6.50001 12.5367 6.50001 12.8333C6.49941 13.231 6.34119 13.6122 6.06001 13.8933C5.77883 14.1745 5.39765 14.3327 5.00001 14.3333ZM20 14.3333C19.7033 14.3333 19.4133 14.2454 19.1667 14.0805C18.92 13.9157 18.7277 13.6815 18.6142 13.4074C18.5007 13.1333 18.471 12.8317 18.5288 12.5407C18.5867 12.2497 18.7296 11.9825 18.9393 11.7727C19.1491 11.5629 19.4164 11.42 19.7074 11.3622C19.9983 11.3043 20.2999 11.334 20.574 11.4475C20.8481 11.5611 21.0824 11.7533 21.2472 12C21.412 12.2467 21.5 12.5367 21.5 12.8333C21.4994 13.231 21.3412 13.6122 21.06 13.8933C20.7788 14.1745 20.3976 14.3327 20 14.3333Z" fill="white"/>
<path d="M14.75 4.58334C14.7517 4.17046 14.6398 3.76506 14.4264 3.41154C14.2131 3.05803 13.9066 2.77003 13.5405 2.57909C13.1744 2.38814 12.7629 2.30161 12.3509 2.32898C11.9389 2.35634 11.5424 2.49654 11.2048 2.73422C10.8672 2.97191 10.6015 3.29791 10.4368 3.67653C10.2721 4.05515 10.2147 4.47179 10.271 4.88083C10.3273 5.28986 10.4951 5.67552 10.7559 5.99557C11.0168 6.31561 11.3607 6.55771 11.75 6.69534V9.83334H13.25V6.69534C13.6878 6.54173 14.0671 6.2561 14.3358 5.87784C14.6044 5.49958 14.7492 5.0473 14.75 4.58334Z" fill="white"/>
</svg>
