<svg width="15" height="12" viewBox="0 0 15 12" fill="none" xmlns="http://www.w3.org/2000/svg">
<path fill-rule="evenodd" clip-rule="evenodd" d="M0 1.83334C0 1.43552 0.158035 1.05399 0.43934 0.772683C0.720644 0.491379 1.10218 0.333344 1.5 0.333344H13.5C13.8978 0.333344 14.2794 0.491379 14.5607 0.772683C14.842 1.05399 15 1.43552 15 1.83334V9.83334C15 10.2312 14.842 10.6127 14.5607 10.894C14.2794 11.1753 13.8978 11.3333 13.5 11.3333H1.5C1.10218 11.3333 0.720644 11.1753 0.43934 10.894C0.158035 10.6127 0 10.2312 0 9.83334L0 1.83334ZM3 4.33334C3 3.80291 3.21071 3.2942 3.58579 2.91913C3.96086 2.54406 4.46957 2.33334 5 2.33334C5.53043 2.33334 6.03914 2.54406 6.41421 2.91913C6.78929 3.2942 7 3.80291 7 4.33334C7 4.86378 6.78929 5.37248 6.41421 5.74756C6.03914 6.12263 5.53043 6.33334 5 6.33334C4.46957 6.33334 3.96086 6.12263 3.58579 5.74756C3.21071 5.37248 3 4.86378 3 4.33334ZM12 4.33334H9V3.33334H12V4.33334ZM12 7.33334H9V6.33334H12V7.33334ZM5 7.33334C4.45642 7.33334 3.92358 7.48471 3.46118 7.77048C2.99878 8.05626 2.6251 8.46515 2.382 8.95134L2.052 9.60934C2.01376 9.68565 1.9957 9.77047 1.99952 9.85573C2.00334 9.941 2.02892 10.0239 2.07383 10.0964C2.11874 10.169 2.18148 10.2289 2.25608 10.2704C2.33068 10.3118 2.41465 10.3335 2.5 10.3333H7.5C7.58526 10.3333 7.66911 10.3115 7.74357 10.27C7.81803 10.2285 7.88064 10.1686 7.92543 10.096C7.97022 10.0235 7.99572 9.94066 7.99949 9.85548C8.00327 9.7703 7.9852 9.68557 7.947 9.60934L7.618 8.95134C7.3749 8.46515 7.00122 8.05626 6.53882 7.77048C6.07642 7.48471 5.54358 7.33334 5 7.33334Z" fill="white"/>
</svg>
