<svg xmlns="http://www.w3.org/2000/svg" xmlns:xlink="http://www.w3.org/1999/xlink" width="500" zoomAndPan="magnify" viewBox="0 0 375 374.999991" height="500" preserveAspectRatio="xMidYMid meet" version="1.0"><defs><g/></defs><path fill="#ffffff" d="M 261.484375 14.289062 C 284.1875 23.65625 304.191406 37.152344 321.019531 53.980469 C 337.847656 70.808594 351.34375 90.8125 360.710938 113.515625 C 369.917969 136.058594 375 160.988281 375 187.5 C 375 214.011719 369.917969 238.9375 360.710938 261.484375 C 351.34375 284.1875 337.847656 304.191406 321.019531 321.019531 C 304.191406 337.847656 284.1875 351.34375 261.484375 360.710938 C 238.9375 369.917969 214.011719 375 187.5 375 C 160.988281 375 136.058594 369.917969 113.515625 360.710938 C 90.8125 351.34375 70.808594 337.847656 53.980469 321.019531 C 37.152344 304.191406 23.65625 284.1875 14.289062 261.484375 C 5.082031 238.9375 0 214.011719 0 187.5 C 0 160.988281 5.082031 136.058594 14.289062 113.515625 C 23.65625 90.8125 37.152344 70.808594 53.980469 53.980469 C 70.808594 37.152344 90.8125 23.65625 113.515625 14.289062 C 136.058594 5.082031 160.988281 0 187.5 0 C 214.011719 0 238.9375 5.082031 261.484375 14.289062 Z M 257.039062 349.4375 C 277.996094 340.867188 296.886719 328.164062 312.605469 312.605469 C 328.164062 296.886719 340.867188 277.996094 349.4375 257.039062 C 358.171875 235.765625 362.933594 212.425781 362.933594 187.5 C 362.933594 162.574219 358.171875 139.234375 349.4375 117.960938 C 340.867188 97.003906 328.164062 78.113281 312.605469 62.394531 C 296.886719 46.835938 277.996094 34.132812 257.039062 25.5625 C 235.765625 16.828125 212.425781 12.066406 187.5 12.066406 C 162.574219 12.066406 139.234375 16.828125 117.960938 25.5625 C 97.003906 34.132812 78.113281 46.835938 62.394531 62.394531 C 46.835938 78.113281 34.132812 97.003906 25.5625 117.960938 C 16.828125 139.234375 12.066406 162.574219 12.066406 187.5 C 12.066406 212.425781 16.828125 235.765625 25.5625 257.039062 C 34.132812 277.996094 46.835938 296.886719 62.394531 312.605469 C 78.113281 328.164062 97.003906 340.867188 117.960938 349.4375 C 139.234375 358.171875 162.574219 362.933594 187.5 362.933594 C 212.425781 362.933594 235.765625 358.171875 257.039062 349.4375 Z M 257.039062 349.4375 " fill-opacity="1" fill-rule="evenodd"/><path fill="#ffffff" d="M 156.066406 111.609375 C 155.746094 111.609375 155.429688 111.769531 155.113281 111.929688 C 154.320312 112.246094 153.683594 112.722656 153.046875 113.199219 C 152.570312 113.832031 152.09375 114.46875 151.777344 115.261719 C 151.621094 115.578125 151.460938 115.898438 151.460938 116.214844 C 151.300781 116.53125 151.300781 116.691406 151.300781 117.007812 L 151.300781 123.199219 L 222.746094 123.199219 L 222.746094 117.007812 C 222.746094 116.691406 222.746094 116.53125 222.585938 116.214844 C 222.585938 115.898438 222.429688 115.578125 222.269531 115.261719 C 221.953125 114.628906 221.476562 113.832031 220.839844 113.355469 C 220.207031 112.722656 219.570312 112.246094 218.777344 111.929688 C 218.457031 111.769531 218.140625 111.609375 217.824219 111.609375 C 217.507812 111.453125 217.347656 111.453125 217.03125 111.453125 L 156.859375 111.453125 C 156.542969 111.453125 156.382812 111.453125 156.066406 111.609375 Z M 139.234375 117.007812 C 139.234375 115.738281 139.394531 114.628906 139.710938 113.515625 C 139.871094 112.40625 140.347656 111.292969 140.824219 110.183594 C 141.617188 108.117188 143.046875 106.371094 144.632812 104.785156 C 146.222656 103.195312 147.96875 101.765625 150.03125 100.972656 C 151.144531 100.496094 152.253906 100.019531 153.367188 99.863281 C 154.476562 99.542969 155.589844 99.386719 156.859375 99.386719 L 217.03125 99.386719 C 218.300781 99.386719 219.410156 99.542969 220.523438 99.863281 C 221.632812 100.019531 222.746094 100.496094 223.855469 100.972656 C 225.921875 101.765625 227.667969 103.195312 229.253906 104.785156 C 231 106.214844 232.269531 108.117188 233.222656 110.183594 C 233.699219 111.132812 234.175781 112.246094 234.335938 113.355469 C 234.652344 114.628906 234.8125 115.738281 234.8125 117.007812 L 234.8125 123.199219 L 278.628906 123.199219 C 287.839844 123.199219 297.207031 132.410156 297.207031 141.617188 L 297.207031 158.289062 L 200.835938 189.882812 C 200.199219 189.5625 199.566406 189.40625 199.089844 189.246094 C 198.453125 189.085938 197.660156 189.085938 197.027344 189.085938 L 177.023438 189.085938 C 176.386719 189.085938 175.59375 189.085938 174.957031 189.246094 C 174.480469 189.40625 173.847656 189.5625 173.371094 189.722656 L 77 158.289062 L 77 141.617188 C 77 132.410156 86.207031 123.199219 95.417969 123.199219 L 139.234375 123.199219 Z M 176.863281 197.183594 L 197.183594 197.183594 C 197.34375 197.183594 197.503906 197.183594 197.660156 197.183594 C 197.820312 197.34375 198.136719 197.503906 198.296875 197.820312 C 198.613281 197.976562 198.773438 198.296875 198.929688 198.453125 C 198.929688 198.613281 198.929688 198.613281 198.929688 198.773438 L 199.089844 198.929688 L 199.089844 205.757812 L 198.929688 205.917969 C 198.929688 206.074219 198.929688 206.234375 198.929688 206.234375 C 198.773438 206.550781 198.613281 206.871094 198.296875 207.027344 C 198.136719 207.34375 197.820312 207.503906 197.503906 207.664062 C 197.503906 207.664062 197.34375 207.664062 197.183594 207.664062 L 197.027344 207.820312 L 177.023438 207.820312 L 176.863281 207.664062 C 176.703125 207.664062 176.546875 207.664062 176.546875 207.664062 C 176.226562 207.503906 175.910156 207.34375 175.75 207.027344 C 175.433594 206.871094 175.273438 206.550781 175.117188 206.234375 C 175.117188 206.234375 175.117188 206.074219 175.117188 205.917969 L 175.117188 198.773438 C 175.117188 198.613281 175.117188 198.613281 175.117188 198.453125 C 175.273438 198.296875 175.433594 197.976562 175.75 197.820312 C 175.910156 197.503906 176.226562 197.34375 176.386719 197.183594 C 176.546875 197.183594 176.703125 197.183594 176.863281 197.183594 Z M 206.871094 196.867188 C 206.871094 196.707031 206.710938 196.550781 206.710938 196.390625 L 297.207031 166.703125 L 297.207031 250.210938 C 297.207031 259.421875 287.839844 268.785156 278.628906 268.785156 L 95.417969 268.785156 C 86.207031 268.785156 77 259.421875 77 250.210938 L 77 166.703125 L 167.335938 196.390625 C 167.335938 196.550781 167.179688 196.707031 167.179688 196.867188 C 167.019531 197.503906 167.019531 198.296875 167.019531 198.929688 L 167.019531 205.757812 C 167.019531 206.394531 167.019531 207.1875 167.179688 207.820312 C 167.335938 208.457031 167.496094 209.09375 167.8125 209.726562 C 168.289062 210.839844 169.082031 211.789062 170.035156 212.742188 C 170.988281 213.695312 171.941406 214.488281 173.050781 214.964844 C 173.6875 215.285156 174.324219 215.441406 174.957031 215.601562 C 175.59375 215.761719 176.386719 215.917969 177.023438 215.917969 L 197.027344 215.917969 C 197.660156 215.917969 198.453125 215.761719 199.089844 215.601562 C 199.726562 215.441406 200.359375 215.285156 200.996094 214.964844 C 202.105469 214.488281 203.058594 213.695312 204.011719 212.742188 C 204.964844 211.789062 205.757812 210.839844 206.234375 209.726562 C 206.550781 209.09375 206.710938 208.457031 206.871094 207.820312 C 207.027344 207.1875 207.1875 206.394531 207.1875 205.757812 L 207.1875 198.929688 C 207.1875 198.296875 207.027344 197.503906 206.871094 196.867188 Z M 206.871094 196.867188 " fill-opacity="1" fill-rule="evenodd"/><g fill="#00bf63" fill-opacity="1"><g transform="translate(146.84765, 159.736967)"><g><path d="M 12.78125 -5.734375 L 4.46875 -5.734375 C 4.5625 -4.609375 4.878906 -3.789062 5.421875 -3.28125 C 5.972656 -2.769531 6.722656 -2.515625 7.671875 -2.515625 C 8.410156 -2.515625 9.007812 -2.648438 9.46875 -2.921875 C 9.925781 -3.203125 10.296875 -3.625 10.578125 -4.1875 L 10.828125 -4.1875 L 12.984375 -2.796875 C 12.566406 -1.890625 11.929688 -1.15625 11.078125 -0.59375 C 10.222656 -0.03125 9.085938 0.25 7.671875 0.25 C 6.328125 0.25 5.171875 -0.00390625 4.203125 -0.515625 C 3.234375 -1.023438 2.484375 -1.78125 1.953125 -2.78125 C 1.421875 -3.789062 1.15625 -5.015625 1.15625 -6.453125 C 1.15625 -7.921875 1.429688 -9.160156 1.984375 -10.171875 C 2.546875 -11.179688 3.296875 -11.929688 4.234375 -12.421875 C 5.179688 -12.921875 6.25 -13.171875 7.4375 -13.171875 C 9.257812 -13.171875 10.65625 -12.6875 11.625 -11.71875 C 12.601562 -10.75 13.09375 -9.328125 13.09375 -7.453125 C 13.09375 -6.773438 13.066406 -6.25 13.015625 -5.875 Z M 9.984375 -7.828125 C 9.953125 -8.816406 9.722656 -9.535156 9.296875 -9.984375 C 8.867188 -10.429688 8.25 -10.65625 7.4375 -10.65625 C 5.789062 -10.65625 4.820312 -9.710938 4.53125 -7.828125 Z M 9.984375 -7.828125 "/></g></g><g transform="translate(160.89843, 159.736967)"><g><path d="M 1.859375 0 L 1.859375 -12.921875 L 4.984375 -12.921875 L 4.984375 -11.1875 L 5.234375 -11.140625 C 5.648438 -11.835938 6.140625 -12.347656 6.703125 -12.671875 C 7.273438 -13.003906 8.003906 -13.171875 8.890625 -13.171875 C 9.859375 -13.171875 10.640625 -12.976562 11.234375 -12.59375 C 11.828125 -12.207031 12.265625 -11.644531 12.546875 -10.90625 L 12.78125 -10.90625 C 13.1875 -11.675781 13.703125 -12.242188 14.328125 -12.609375 C 14.953125 -12.984375 15.734375 -13.171875 16.671875 -13.171875 C 19.359375 -13.171875 20.703125 -11.679688 20.703125 -8.703125 L 20.703125 0 L 17.453125 0 L 17.453125 -8.28125 C 17.453125 -9.039062 17.300781 -9.585938 17 -9.921875 C 16.707031 -10.265625 16.234375 -10.4375 15.578125 -10.4375 C 13.796875 -10.4375 12.90625 -9.242188 12.90625 -6.859375 L 12.90625 0 L 9.65625 0 L 9.65625 -8.28125 C 9.65625 -9.039062 9.503906 -9.585938 9.203125 -9.921875 C 8.898438 -10.265625 8.421875 -10.4375 7.765625 -10.4375 C 6.929688 -10.4375 6.28125 -10.15625 5.8125 -9.59375 C 5.34375 -9.03125 5.109375 -8.140625 5.109375 -6.921875 L 5.109375 0 Z M 1.859375 0 "/></g></g><g transform="translate(183.257804, 159.736967)"><g><path d="M 1.859375 5.234375 L 1.859375 -12.921875 L 5.109375 -12.921875 L 5.109375 -11.234375 L 5.359375 -11.1875 C 5.742188 -11.84375 6.253906 -12.335938 6.890625 -12.671875 C 7.535156 -13.003906 8.285156 -13.171875 9.140625 -13.171875 C 10.179688 -13.171875 11.085938 -12.925781 11.859375 -12.4375 C 12.640625 -11.945312 13.242188 -11.195312 13.671875 -10.1875 C 14.109375 -9.1875 14.328125 -7.941406 14.328125 -6.453125 C 14.328125 -4.984375 14.097656 -3.75 13.640625 -2.75 C 13.191406 -1.75 12.5625 -1 11.75 -0.5 C 10.9375 0 10 0.25 8.9375 0.25 C 8.125 0.25 7.425781 0.113281 6.84375 -0.15625 C 6.257812 -0.425781 5.765625 -0.847656 5.359375 -1.421875 L 5.109375 -1.375 L 5.109375 5.234375 Z M 8.03125 -2.515625 C 9 -2.515625 9.734375 -2.828125 10.234375 -3.453125 C 10.734375 -4.085938 10.984375 -5.085938 10.984375 -6.453125 C 10.984375 -7.828125 10.734375 -8.832031 10.234375 -9.46875 C 9.734375 -10.101562 9 -10.421875 8.03125 -10.421875 C 7.125 -10.421875 6.40625 -10.09375 5.875 -9.4375 C 5.34375 -8.78125 5.078125 -7.785156 5.078125 -6.453125 C 5.078125 -5.140625 5.34375 -4.15625 5.875 -3.5 C 6.40625 -2.84375 7.125 -2.515625 8.03125 -2.515625 Z M 8.03125 -2.515625 "/></g></g><g transform="translate(198.738272, 159.736967)"><g><path d="M 5.375 0.25 C 4.207031 0.25 3.316406 -0.0625 2.703125 -0.6875 C 2.085938 -1.320312 1.78125 -2.28125 1.78125 -3.5625 L 1.78125 -18.125 L 5.03125 -18.125 L 5.03125 -3.6875 C 5.03125 -2.90625 5.359375 -2.515625 6.015625 -2.515625 C 6.203125 -2.515625 6.398438 -2.546875 6.609375 -2.609375 L 6.78125 -2.5625 L 7.0625 -0.0625 C 6.882812 0.03125 6.644531 0.101562 6.34375 0.15625 C 6.050781 0.21875 5.726562 0.25 5.375 0.25 Z M 5.375 0.25 "/></g></g><g transform="translate(206.167959, 159.736967)"><g><path d="M 7.515625 0.25 C 6.242188 0.25 5.128906 -0.0078125 4.171875 -0.53125 C 3.222656 -1.050781 2.484375 -1.8125 1.953125 -2.8125 C 1.421875 -3.820312 1.15625 -5.035156 1.15625 -6.453125 C 1.15625 -7.878906 1.421875 -9.09375 1.953125 -10.09375 C 2.484375 -11.101562 3.222656 -11.867188 4.171875 -12.390625 C 5.128906 -12.910156 6.242188 -13.171875 7.515625 -13.171875 C 8.773438 -13.171875 9.882812 -12.910156 10.84375 -12.390625 C 11.800781 -11.867188 12.546875 -11.101562 13.078125 -10.09375 C 13.609375 -9.09375 13.875 -7.878906 13.875 -6.453125 C 13.875 -5.035156 13.609375 -3.820312 13.078125 -2.8125 C 12.546875 -1.8125 11.800781 -1.050781 10.84375 -0.53125 C 9.882812 -0.0078125 8.773438 0.25 7.515625 0.25 Z M 7.515625 -2.515625 C 9.523438 -2.515625 10.53125 -3.828125 10.53125 -6.453125 C 10.53125 -7.828125 10.269531 -8.832031 9.75 -9.46875 C 9.238281 -10.101562 8.492188 -10.421875 7.515625 -10.421875 C 5.503906 -10.421875 4.5 -9.097656 4.5 -6.453125 C 4.5 -3.828125 5.503906 -2.515625 7.515625 -2.515625 Z M 7.515625 -2.515625 "/></g></g><g transform="translate(221.191395, 159.736967)"><g><path d="M 3.484375 -14.46875 C 2.898438 -14.46875 2.421875 -14.644531 2.046875 -15 C 1.679688 -15.363281 1.5 -15.828125 1.5 -16.390625 C 1.5 -16.941406 1.679688 -17.394531 2.046875 -17.75 C 2.421875 -18.101562 2.898438 -18.28125 3.484375 -18.28125 C 3.867188 -18.28125 4.210938 -18.195312 4.515625 -18.03125 C 4.828125 -17.875 5.066406 -17.648438 5.234375 -17.359375 C 5.398438 -17.078125 5.484375 -16.753906 5.484375 -16.390625 C 5.484375 -16.015625 5.398438 -15.679688 5.234375 -15.390625 C 5.066406 -15.109375 4.828125 -14.882812 4.515625 -14.71875 C 4.210938 -14.550781 3.867188 -14.46875 3.484375 -14.46875 Z M 1.859375 0 L 1.859375 -12.921875 L 5.109375 -12.921875 L 5.109375 0 Z M 1.859375 0 "/></g></g></g></svg>