<svg width="20" height="20" viewBox="0 0 20 20" fill="none" xmlns="http://www.w3.org/2000/svg">
<path d="M1.9751 19.5V16.5H5.0751L2.5251 8.14999C2.0751 7.89999 1.70443 7.53332 1.4131 7.04999C1.12176 6.56665 0.975764 6.04999 0.975098 5.49999C0.975098 4.66665 1.26676 3.95832 1.8501 3.37499C2.43343 2.79165 3.14176 2.49999 3.9751 2.49999C4.6251 2.49999 5.20443 2.68765 5.7131 3.06299C6.22176 3.43832 6.57576 3.91732 6.7751 4.49999H9.9751V2.49999H11.4501L11.7751 2.89999L14.0001 0.799988L19.2001 3.24999L18.6001 4.54999L14.3251 2.59999L11.9751 4.79999V6.19999L14.3251 8.34999L18.6501 6.39999L19.2501 7.69999L14.0001 10.2L11.7751 8.09999L11.3751 8.49999H9.9751V6.49999H6.7751C6.7251 6.63332 6.6711 6.75832 6.6131 6.87499C6.5551 6.99165 6.47576 7.11665 6.3751 7.24999L11.3751 16.5H14.9751V19.5H1.9751ZM3.9751 6.49999C4.25843 6.49999 4.4961 6.40399 4.6881 6.21199C4.8801 6.01999 4.97576 5.78265 4.9751 5.49999C4.97443 5.21732 4.87876 4.97999 4.6881 4.78799C4.49743 4.59599 4.25976 4.49999 3.9751 4.49999C3.69043 4.49999 3.4531 4.59599 3.2631 4.78799C3.0731 4.97999 2.9771 5.21732 2.9751 5.49999C2.9731 5.78265 3.0691 6.02032 3.2631 6.21299C3.4571 6.40565 3.69443 6.50132 3.9751 6.49999Z" fill="white"/>
</svg>
