<svg width="31" height="21" viewBox="0 0 31 21" fill="none" xmlns="http://www.w3.org/2000/svg">
<path d="M5 3V13.5C5 15.1547 6.34531 16.5 8 16.5H27.5C29.1547 16.5 30.5 15.1547 30.5 13.5V3C30.5 1.34531 29.1547 0 27.5 0H8C6.34531 0 5 1.34531 5 3ZM8 10.5C9.65469 10.5 11 11.8453 11 13.5H8V10.5ZM11 3C11 4.65469 9.65469 6 8 6V3H11ZM27.5 10.5V13.5H24.5C24.5 11.8453 25.8453 10.5 27.5 10.5ZM24.5 3H27.5V6C25.8453 6 24.5 4.65469 24.5 3ZM14 8.25C14 7.25544 14.3951 6.30161 15.0983 5.59835C15.8016 4.89509 16.7554 4.5 17.75 4.5C18.7446 4.5 19.6984 4.89509 20.4016 5.59835C21.1049 6.30161 21.5 7.25544 21.5 8.25C21.5 9.24456 21.1049 10.1984 20.4016 10.9017C19.6984 11.6049 18.7446 12 17.75 12C16.7554 12 15.8016 11.6049 15.0983 10.9017C14.3951 10.1984 14 9.24456 14 8.25ZM2.75 4.125C2.75 3.50156 2.24844 3 1.625 3C1.00156 3 0.5 3.50156 0.5 4.125V15.375C0.5 18.4828 3.01719 21 6.125 21H24.875C25.4984 21 26 20.4984 26 19.875C26 19.2516 25.4984 18.75 24.875 18.75H6.125C4.25938 18.75 2.75 17.2406 2.75 15.375V4.125Z" fill="white"/>
</svg>
