<svg width="21" height="21" viewBox="0 0 21 21" fill="none" xmlns="http://www.w3.org/2000/svg">
<path d="M10.5 20.8333C4.977 20.8333 0.5 16.3563 0.5 10.8333C0.5 5.31034 4.977 0.833344 10.5 0.833344C16.023 0.833344 20.5 5.31034 20.5 10.8333C20.5 16.3563 16.023 20.8333 10.5 20.8333ZM8.21 18.5003C7.22341 16.4077 6.65187 14.1436 6.527 11.8333H2.562C2.75659 13.3722 3.39392 14.8215 4.39657 16.005C5.39922 17.1886 6.72401 18.0555 8.21 18.5003ZM8.53 11.8333C8.681 14.2723 9.378 16.5633 10.5 18.5853C11.6523 16.5099 12.3254 14.2028 12.47 11.8333H8.53ZM18.438 11.8333H14.473C14.3481 14.1436 13.7766 16.4077 12.79 18.5003C14.276 18.0555 15.6008 17.1886 16.6034 16.005C17.6061 14.8215 18.2434 13.3722 18.438 11.8333ZM2.562 9.83334H6.527C6.65187 7.52313 7.22341 5.25903 8.21 3.16634C6.72401 3.61122 5.39922 4.4781 4.39657 5.66164C3.39392 6.84518 2.75659 8.29445 2.562 9.83334ZM8.531 9.83334H12.469C12.3248 7.46394 11.652 5.15688 10.5 3.08134C9.34768 5.15679 8.67456 7.46386 8.53 9.83334M12.789 3.16634C13.7759 5.25896 14.3478 7.52306 14.473 9.83334H18.438C18.2434 8.29445 17.6061 6.84518 16.6034 5.66164C15.6008 4.4781 14.276 3.61122 12.79 3.16634" fill="white"/>
</svg>
