<svg width="22" height="21" viewBox="0 0 22 21" fill="none" xmlns="http://www.w3.org/2000/svg">
<path d="M19.4999 15.8333C20.0732 15.8333 20.5566 16.0333 20.9499 16.4333C21.3432 16.8333 21.5366 17.3 21.5299 17.8333L13.4999 20.8333L6.49989 18.8333V9.83334H8.44989L15.7199 12.5233C16.2399 12.73 16.4999 13.1033 16.4999 13.6433C16.4999 13.9567 16.3866 14.23 16.1599 14.4633C15.9332 14.6967 15.6466 14.82 15.2999 14.8333H12.4999L10.7499 14.1633L10.4199 15.1033L12.4999 15.8333H19.4999ZM15.4999 2.06334C16.2066 1.24334 17.1066 0.833344 18.1999 0.833344C19.1066 0.833344 19.8732 1.16668 20.4999 1.83334C21.1266 2.50001 21.4599 3.26668 21.4999 4.13334C21.4999 4.82001 21.1666 5.64001 20.4999 6.59334C19.8332 7.54668 19.1766 8.34334 18.5299 8.98334C17.8832 9.62334 16.8732 10.5733 15.4999 11.8333C14.1132 10.5733 13.0932 9.62334 12.4399 8.98334C11.7866 8.34334 11.1299 7.54668 10.4699 6.59334C9.80989 5.64001 9.48655 4.82001 9.49989 4.13334C9.49989 3.22668 9.82322 2.46001 10.4699 1.83334C11.1166 1.20668 11.8966 0.873344 12.8099 0.833344C13.8766 0.833344 14.7732 1.24334 15.4999 2.06334ZM0.483887 9.83334H4.49989V20.8333H0.483887V9.83334Z" fill="white"/>
</svg>
